<svg viewBox="0 0 1024 1024" xmlns="http://www.w3.org/2000/svg"><path d="M772.267 529.067L507.733 793.6c-72.533 72.533-187.733 72.533-256 0-72.533-72.533-72.533-187.733 0-256l341.334-341.333c42.666-38.4 106.666-38.4 149.333 0 42.667 42.666 42.667 110.933 0 149.333L448 640c-12.8 12.8-34.133 12.8-46.933 0-12.8-12.8-12.8-34.133 0-46.933l217.6-217.6c17.066-17.067 17.066-42.667 0-59.734-17.067-17.066-42.667-17.066-59.734 0L341.333 537.6c-46.933 46.933-46.933 119.467 0 166.4 46.934 42.667 119.467 42.667 166.4 0l294.4-294.4c76.8-76.8 76.8-196.267 0-273.067-76.8-76.8-196.266-76.8-273.066 0L187.733 477.867c-51.2 51.2-76.8 119.466-76.8 187.733 0 149.333 119.467 264.533 268.8 264.533 72.534 0 136.534-29.866 187.734-76.8L832 588.8c17.067-17.067 17.067-42.667 0-59.733-17.067-17.067-42.667-17.067-59.733 0z"/></svg>