<svg viewBox="0 0 1024 1024" xmlns="http://www.w3.org/2000/svg"><path d="M881.664 134.272l-764.16 308.032c-41.856 12.864-40.576 56.768-9.472 67.584l191.552 63.552 73.536 239.168c8.896 26.368 16.512 35.84 31.744 36.48 15.232.704 22.208-6.08 38.72-21.568 19.648-19.584 48.832-49.984 96-98.752l199.104 156.736c36.8 21.568 63.36 10.112 72.256-36.48l124.928-658.048c12.416-56.704-18.688-73.6-54.208-56.704zm-552.32 424.896l435.648-291.2c21.312-15.488 27.904 2.048 18.432 13.504l-361.472 345.92L403.52 800.32l-74.176-241.152z"/></svg>