<svg viewBox="0 0 1024 1024" xmlns="http://www.w3.org/2000/svg"><path d="M519.552 85.312h.064c63.808-.32 126.912 14.016 184.32 41.92 57.408 27.904 107.712 68.608 146.88 119.04 39.168 50.432 66.304 109.12 79.168 171.712 12.928 62.528 11.264 127.168-4.8 188.992C909.12 668.8 879.104 726.08 837.376 774.4c-41.728 48.384-93.952 86.464-152.768 111.424-58.752 24.96-122.496 36.032-186.24 32.448-63.744-3.584-125.824-21.824-181.376-53.184l-231.68 73.6 75.456-222.528c-39.552-64.64-60.352-139.008-60.224-214.848.448-110.72 44.8-216.768 123.392-294.784 78.528-77.952 184.896-121.6 295.616-121.216zm0 761.408c69.12.128 136.768-20.352 194.24-58.688 57.536-38.4 102.336-92.992 128.768-156.928 26.432-63.872 33.28-134.208 19.712-201.984-13.632-67.776-47.04-130.048-96.064-178.816-49.088-48.704-111.488-81.792-179.328-95.04-67.904-13.184-138.112-5.952-201.856 20.864-63.744 26.816-118.08 71.936-156.096 129.728-38.08 57.728-58.048 125.504-57.536 194.624-.064 72.96 23.104 144.064 66.176 203.008L193.92 832.192l133.632-42.624c57.024 37.376 123.776 57.28 192 57.152zM716.16 595.136l-.064-.064c9.984 5.952 17.216 9.28 19.904 14.72 2.496 17.088-.32 34.496-7.936 49.92C719.68 672.448 708.8 683.264 696 691.52c-12.736 8.256-27.072 13.76-42.112 16.192-3.392.128-6.208.64-9.152 1.216-13.632 2.56-29.76 5.632-117.888-32.704-73.408-37.888-134.656-95.744-176.704-166.912-23.936-32.256-37.824-70.912-39.744-111.04.448-16.576 4.352-32.896 11.392-47.936 7.04-15.04 17.152-28.48 29.696-39.424 3.776-3.904 8.256-7.04 13.248-9.152 4.992-2.176 10.432-3.264 15.872-3.328 7.296 0 14.592 1.344 20.48 1.344.64 0 1.28 0 1.92-.064 5.888-.256 14.144-.64 21.248 18.496 7.936 21.312 27.136 74.624 29.824 80 1.472 2.816 2.24 5.952 2.24 9.152 0 3.264-.768 6.4-2.24 9.216-3.136 6.08-6.912 11.84-11.264 17.088-5.184 6.208-10.688 12.16-16.512 17.728l-.512.512c-5.184 5.056-10.624 10.368-4.864 21.184 15.488 27.648 34.624 53.056 56.96 75.52 24.704 23.168 53.12 41.984 84.032 55.808 10.56 5.248 17.216 4.608 23.168-1.984 5.952-6.528 27.136-29.504 35.072-40 7.936-10.56 15.232-8.448 24.512-4.608 9.216 3.84 60.8 31.424 71.488 37.312z"/></svg>