<svg viewBox="0 0 1024 1024" xmlns="http://www.w3.org/2000/svg"><path d="M855.467 469.333c22.4 0 40.533 18.134 40.533 40.534v4.266c0 22.4-18.133 40.534-40.533 40.534H168.533c-22.4 0-40.533-18.134-40.533-40.534v-4.266c0-22.4 18.133-40.534 40.533-40.534zm0 213.334c22.4 0 40.533 18.133 40.533 40.533v4.267c0 22.4-18.133 40.533-40.533 40.533H168.533c-22.4 0-40.533-18.133-40.533-40.533V723.2c0-22.4 18.133-40.533 40.533-40.533zm0-426.667c22.4 0 40.533 18.133 40.533 40.533v4.267c0 22.4-18.133 40.533-40.533 40.533H168.533c-22.4 0-40.533-18.133-40.533-40.533v-4.267c0-22.4 18.133-40.533 40.533-40.533z"/></svg>