<svg viewBox="0 0 614.3977 1024" xmlns="http://www.w3.org/2000/svg"><path d="M23.45 1001.472C8.397 987.034 0 967.476 0 946.996c0-20.38 8.397-39.937 23.45-54.374L420.658 511.49 23.45 130.46C8.806 115.924.717 96.466.922 76.29c.204-20.173 8.6-39.424 23.552-53.76C39.322 8.298 59.494.21 80.486.004 101.58-.2 121.753 7.582 136.91 21.61l453.936 435.505c15.053 14.44 23.552 33.997 23.552 54.375 0 20.48-8.5 40.038-23.552 54.477L136.908 1001.47c-15.052 14.44-35.43 22.53-56.73 22.53-21.298 0-41.676-8.09-56.728-22.53z"/></svg>