<svg width="22" height="32" viewBox="0 0 22 32" fill="none" xmlns="http://www.w3.org/2000/svg">
<path d="M11.0003 0C9.15828 0.00917159 7.35006 0.495195 5.75168 1.41074C4.15331 2.32629 2.81927 3.64015 1.87947 5.22438C0.93967 6.80861 0.426144 8.60922 0.3889 10.4509C0.351655 12.2925 0.791962 14.1124 1.66694 15.7333L10.4669 31.6533C10.5241 31.7592 10.6088 31.8476 10.712 31.9092C10.8153 31.9708 10.9333 32.0034 11.0536 32.0034C11.1739 32.0034 11.2919 31.9708 11.3952 31.9092C11.4985 31.8476 11.5832 31.7592 11.6403 31.6533L20.3336 15.7333C21.2086 14.1124 21.6489 12.2925 21.6117 10.4509C21.5744 8.60922 21.0609 6.80861 20.1211 5.22438C19.1813 3.64015 17.8472 2.32629 16.2489 1.41074C14.6505 0.495195 12.8423 0.00917159 11.0003 0ZM11.0003 16C9.94544 16 8.9143 15.6872 8.03723 15.1012C7.16017 14.5151 6.47658 13.6822 6.07292 12.7076C5.66925 11.7331 5.56363 10.6608 5.76942 9.62619C5.97521 8.59162 6.48316 7.64131 7.22904 6.89543C7.97492 6.14955 8.92523 5.6416 9.95979 5.43581C10.9944 5.23002 12.0667 5.33564 13.0413 5.73931C14.0158 6.14298 14.8487 6.82656 15.4348 7.70363C16.0208 8.58069 16.3336 9.61183 16.3336 10.6667C16.3336 12.0812 15.7717 13.4377 14.7715 14.4379C13.7713 15.4381 12.4148 16 11.0003 16Z" fill="black"/>
</svg>
