<svg viewBox="0 0 1024 1024" xmlns="http://www.w3.org/2000/svg"><path d="M853.333 192H170.667c-46.934 0-85.334 36.01-85.334 80v480c0 43.99 38.4 80 85.334 80h682.666c46.934 0 85.334-36.01 85.334-80V272c0-43.99-38.4-80-85.334-80zm-17.066 169.984L557.227 525.61c-27.734 16.385-62.72 16.385-90.454 0l-279.04-163.626c-4.266-2.22-8.02-5.29-11.008-8.917-2.986-3.67-5.162-7.85-6.357-12.288-1.237-4.48-1.493-9.09-.725-13.657.768-4.522 2.474-8.874 5.077-12.8 2.603-3.882 6.016-7.253 10.07-9.898 4.01-2.603 8.575-4.438 13.354-5.376 4.82-.94 9.77-.94 14.592 0 4.82.896 9.344 2.73 13.397 5.333L512 471.98l285.867-167.596c4.01-2.603 8.576-4.437 13.397-5.333 4.82-.936 9.77-.936 14.55 0 4.82.94 9.386 2.776 13.397 5.38 4.056 2.644 7.47 6.015 10.07 9.897 2.605 3.926 4.31 8.278 5.08 12.8.725 4.566.51 9.174-.726 13.654-1.195 4.437-3.37 8.618-6.357 12.288-2.987 3.626-6.742 6.698-11.008 8.917z"/></svg>